HIERARCHY
ROOT Hips
{
	OFFSET -0.179506 -22.333345 2.821913
	CHANNELS 6 Xposition Yposition Zposition Zrotation Yrotation Xrotation 
	JOINT LeftUpLeg
	{
		OFFSET 6.951974 -9.140623 -0.681533
		CHANNELS 3 Zrotation Yrotation Xrotation
		JOINT LeftLeg
		{
			OFFSET 3.427654 -37.519855 -0.449580
			CHANNELS 3 Zrotation Yrotation Xrotation
			JOINT LeftFoot
			{
				OFFSET -1.359570 -39.796059 -4.369333
				CHANNELS 3 Zrotation Yrotation Xrotation
				JOINT LeftToe
				{
					OFFSET 2.635814 -5.579078 11.928840
					CHANNELS 3 Zrotation Yrotation Xrotation
					End Site
					{
						OFFSET 0.000000 0.000000 0.000000
					}
				}
			}
		}
	}
	JOINT RightUpLeg
	{
		OFFSET -6.767048 -9.052170 -0.431982
		CHANNELS 3 Zrotation Yrotation Xrotation
		JOINT RightLeg
		{
			OFFSET -3.829005 -38.256897 -0.885003
			CHANNELS 3 Zrotation Yrotation Xrotation
			JOINT RightFoot
			{
				OFFSET 1.577377 -39.841461 -4.231180
				CHANNELS 3 Zrotation Yrotation Xrotation
				JOINT RightToe
				{
					OFFSET -2.537174 -4.814398 12.334795
					CHANNELS 3 Zrotation Yrotation Xrotation
					End Site
					{
						OFFSET 0.000000 0.000000 0.000000
					}
				}
			}
		}
	}
	JOINT Spine
	{
		OFFSET -0.253288 10.896323 -2.669631
		CHANNELS 3 Zrotation Yrotation Xrotation
		JOINT Spine1
		{
			OFFSET 0.548704 13.518043 0.109247
			CHANNELS 3 Zrotation Yrotation Xrotation
			JOINT Spine2
			{
				OFFSET 0.145701 5.292222 2.542457
				CHANNELS 3 Zrotation Yrotation Xrotation
				JOINT Neck
				{
					OFFSET -0.277840 21.387037 -4.285703
					CHANNELS 3 Zrotation Yrotation Xrotation
					JOINT Head
					{
						OFFSET 0.515184 6.496960 5.134897
						CHANNELS 3 Zrotation Yrotation Xrotation
						End Site
						{
							OFFSET 0.000000 0.000000 0.000000
						}
					}
				}
				JOINT LeftShoulder
				{
					OFFSET 7.884473 12.174932 -3.408961
					CHANNELS 3 Zrotation Yrotation Xrotation
					JOINT LeftArm
					{
						OFFSET 9.097692 3.046888 -0.886815
						CHANNELS 3 Zrotation Yrotation Xrotation
						JOINT LeftForeArm
						{
							OFFSET 25.961220 -1.277207 -2.745643
							CHANNELS 3 Zrotation Yrotation Xrotation
							JOINT LeftHand
							{
								OFFSET 24.923361 0.898606 -0.117091
								CHANNELS 3 Zrotation Yrotation Xrotation
								End Site
								{
									OFFSET 0.000000 0.000000 0.000000
								}
							}
						}
					}
				}
				JOINT RightShoulder
				{
					OFFSET -8.175920 11.883285 -3.861528
					CHANNELS 3 Zrotation Yrotation Xrotation
					JOINT RightArm
					{
						OFFSET -9.601238 3.255117 -0.914307
						CHANNELS 3 Zrotation Yrotation Xrotation
						JOINT RightForeArm
						{
							OFFSET -25.374195 -1.332924 -2.140099
							CHANNELS 3 Zrotation Yrotation Xrotation
							JOINT RightHand
							{
								OFFSET -25.529810 0.777228 -0.555919
								CHANNELS 3 Zrotation Yrotation Xrotation
								End Site
								{
									OFFSET 0.000000 0.000000 0.000000
								}
							}
						}
					}
				}
			}
		}
	}
}
MOTION
Frames: 14
Frame Time: 0.033333
-85.210648 2.164608 91.797966 -128.149635 -1.583514 84.605666 -2.598761 0.662150 -2.556739 -5.104815 -0.588234 12.944803 7.124976 12.752698 -11.584438 nan nan nan -5.837236 -1.136316 -1.359420 -1.888652 -4.943243 50.918026 3.641427 -6.497454 -13.572675 nan nan nan -2.109906 3.166466 10.008114 1.773616 -2.364365 7.879551 0.135529 0.282445 -4.334835 1.848757 -0.351717 0.011698 1.153363 -2.091892 2.107751 -25.782040 0.114248 1.895676 -52.651428 4.805805 11.538441 4.413519 -32.491279 3.919784 -7.412330 -13.021960 -0.425172 26.315736 10.942149 0.811419 49.535517 5.599995 14.644003 -13.034006 41.578194 -5.993486 4.387502 16.518686 0.166258 
-84.236069 1.607983 91.552948 -128.462932 -1.605345 84.738298 -2.466464 0.611236 -3.751221 -5.182605 -0.101708 13.400985 7.423365 12.970101 -11.441287 nan nan nan -6.083910 -1.232423 -0.143078 -1.745573 -4.542313 51.241615 4.000599 -6.364126 -12.917637 nan nan nan -2.104479 3.638439 9.645596 1.793186 -2.425142 8.024064 0.039339 0.445100 -4.297729 2.021758 -0.534396 0.105665 0.986759 -2.115278 1.792378 -25.790100 -0.093803 1.960412 -52.466980 5.679286 12.015064 4.560533 -32.291664 3.778871 -7.893548 -12.267905 -0.724841 26.220107 11.229129 0.579455 49.317615 6.067862 14.684344 -13.350274 42.460584 -6.620442 4.121038 16.120781 0.154301 
-83.265289 1.061165 91.276817 -128.763661 -1.669460 84.910692 -2.296227 0.355001 -5.097161 -5.173782 0.171105 14.183702 7.614384 12.930593 -11.314802 nan nan nan -6.353188 -1.387728 0.982590 -1.571232 -3.979430 51.505912 4.224258 -6.053483 -12.093942 nan nan nan -2.186996 4.221565 9.145138 1.848756 -2.492002 8.504070 -0.045680 0.551341 -4.559232 2.269599 -0.733821 0.171174 0.890177 -2.193639 1.615076 -25.940394 -0.007908 2.001750 -51.974459 6.419266 12.381502 4.222939 -32.217233 4.268193 -8.316675 -11.983369 -0.235467 26.271560 11.380273 0.392653 48.930258 6.493900 14.801892 -13.623652 43.431379 -6.986322 4.225184 16.189929 0.496506 
-82.303154 0.489585 91.002113 -129.041602 -1.720380 85.236992 -2.059715 -0.070947 -6.658267 -4.957108 1.087237 15.150344 7.584838 12.482379 -11.282676 nan nan nan -6.593856 -1.541722 2.003199 -1.308439 -3.277908 51.523962 4.353121 -5.542126 -11.225512 nan nan nan -2.180116 4.684916 8.567318 1.700025 -2.446749 8.708107 0.088958 0.536637 -4.560521 2.391608 -0.634697 0.092559 0.657555 -2.458148 1.427340 -25.962561 0.555726 1.680249 -52.466569 6.167565 11.410450 4.147582 -30.377582 3.387034 -8.213573 -11.894321 0.938044 26.094756 11.368418 0.490487 49.029197 7.494861 14.928789 -14.327783 43.821542 -7.149323 4.574765 16.337429 0.884483 
-81.318420 -0.066034 90.693962 -129.383054 -1.791239 85.454152 -1.871451 -0.357673 -8.076895 -4.933701 1.646210 15.871436 7.549765 12.588496 -11.156416 nan nan nan -6.843940 -1.602980 3.194497 -0.899571 -2.384933 51.339219 4.641807 -4.847530 -10.595445 nan nan nan -2.254487 5.190001 8.131312 1.588894 -2.480318 8.975471 0.102020 0.646361 -4.629255 2.573589 -0.792007 -0.007248 0.650078 -2.510786 1.418743 -26.030730 0.483110 1.701988 -52.287437 6.858815 11.660327 4.370294 -30.139303 3.248070 -8.542658 -11.285510 1.806101 26.111136 11.579425 0.315586 48.769314 8.119894 15.003769 -14.698720 44.474017 -7.855573 4.773876 16.115516 0.739751 
-80.295029 -0.670063 90.374603 -129.724608 -1.877499 85.722296 -1.687798 -0.605104 -9.686878 -4.993208 2.114708 16.767537 7.716039 12.594623 -10.975906 nan nan nan -7.166759 -1.672583 4.226642 -0.492073 -1.532915 51.085612 4.953156 -4.044257 -9.647393 nan nan nan -2.260133 5.679649 7.722704 1.495427 -2.548172 9.189533 0.002047 0.817857 -4.729230 2.713005 -1.008711 -0.165814 0.664588 -2.517547 1.565729 -26.021719 0.349693 1.767611 -52.220946 7.497214 12.045382 4.823005 -29.583556 3.083014 -8.921993 -10.961731 1.907432 26.134537 11.813777 0.226932 48.522552 8.786457 15.062352 -15.170015 44.980924 -8.712322 4.690219 15.879193 0.554919 
-79.294189 -1.294004 90.050125 -130.047312 -1.987826 85.961717 -1.440730 -0.883326 -11.455810 -5.049990 3.111436 17.944336 8.078747 12.241702 -10.965351 nan nan nan -7.478989 -1.585121 5.356814 -0.355329 -1.060152 50.483133 5.416867 -3.175127 -8.550609 nan nan nan -2.424932 6.441361 7.333977 1.700717 -2.713861 9.536964 -0.135968 1.017795 -5.208309 2.839515 -1.040089 -0.358494 0.659151 -2.840327 2.120659 -25.647611 0.218989 1.891571 -51.744693 7.377683 12.564927 3.004675 -27.597434 5.627650 -8.647300 -12.268700 1.408176 26.247908 11.961246 0.473840 47.892662 9.367385 14.900759 -15.500607 45.327025 -8.731749 4.118980 16.508323 0.870788 
-78.278137 -1.851582 89.719818 -130.370275 -2.034799 86.155386 -1.081469 -1.283531 -13.113763 -5.113193 4.115839 19.060054 8.295634 12.110934 -10.836467 nan nan nan -7.770113 -1.646301 6.525261 0.096348 -0.341679 49.799749 5.540392 -2.530726 -7.651333 nan nan nan -2.398497 7.001777 7.152012 1.554028 -2.737396 9.650597 -0.158043 1.217049 -5.381290 3.043031 -1.398549 -0.737280 0.483374 -2.979505 2.479260 -25.984860 0.853108 1.991228 -51.503999 7.446874 11.891892 3.417907 -27.350525 5.478944 -8.153468 -12.478447 1.425947 26.433843 11.963328 0.764257 47.298920 10.021344 14.771726 -16.079683 46.028929 -8.994840 3.639546 16.428549 0.741746 
-77.214081 -2.411865 89.394333 -130.598702 -2.019500 86.285235 -0.671124 -1.539774 -14.693514 -5.182125 4.613732 20.144744 8.079070 12.147873 -10.505758 nan nan nan -7.950637 -1.823897 7.801745 0.635833 0.522522 49.006482 5.857815 -1.939151 -7.388920 nan nan nan -2.384098 7.636504 6.953975 1.567014 -2.892927 9.781837 -0.319590 1.448072 -5.542408 3.241407 -1.697307 -0.923466 0.647405 -3.059435 2.787600 -26.199021 0.892315 2.233415 -50.083862 8.381105 12.594351 2.159360 -28.487915 7.338692 -7.893157 -11.917327 1.288958 26.758585 12.024579 0.785315 46.473888 10.318464 14.599143 -16.325752 46.926888 -9.575193 3.019584 16.287801 0.823323 
-76.126846 -3.062825 89.135391 -130.820387 -2.022401 86.637318 -0.258114 -2.109682 -16.613873 -5.049883 5.503166 21.334678 7.954799 12.230578 -10.253814 nan nan nan -8.138275 -1.815949 8.763855 1.062478 1.120066 48.187656 5.906681 -1.624085 -7.328160 nan nan nan -2.179842 8.137314 6.398043 1.315529 -2.973535 10.013735 -0.239289 1.452120 -5.494934 3.163183 -1.480818 -0.852330 0.656938 -3.409967 2.443753 -26.115027 1.405583 1.993679 -51.810462 8.040780 11.138761 4.917393 -26.551606 5.220708 -9.498745 -11.684497 2.393619 26.478143 12.223107 0.983346 46.663646 11.094888 14.364806 -17.572309 47.083973 -10.176978 3.163449 16.367364 1.477492 
-75.065605 -3.645384 88.833115 -131.074145 -2.055228 86.712209 0.125176 -2.337460 -18.127009 -4.892127 6.279864 22.353675 8.158328 12.188056 -9.972519 nan nan nan -8.307171 -1.905778 9.975918 1.332988 1.909733 47.200250 5.909207 -1.356907 -7.265254 nan nan nan -2.116812 8.678798 6.142692 1.146758 -3.009764 10.303508 -0.227354 1.501269 -5.471587 3.314490 -1.551088 -1.093671 0.638006 -3.742017 2.482206 -26.011677 1.377371 1.882484 -51.785578 8.307154 11.036695 4.956559 -26.056128 4.564880 -9.578153 -11.048836 2.324947 26.441254 12.434729 0.803826 46.545425 11.773401 14.280480 -18.222747 47.163527 -10.924152 3.265519 16.138370 1.777175 
-73.968826 -4.261245 88.560364 -131.422255 -2.133668 86.797293 0.477263 -2.537515 -19.563836 -4.771814 6.857104 23.189130 8.433572 12.180898 -9.686817 nan nan nan -8.519334 -1.920747 11.066660 1.600032 2.670526 46.109902 6.041659 -0.966679 -6.991493 nan nan nan -2.169386 9.230002 6.000934 1.034483 -3.027863 10.451403 -0.172426 1.591839 -5.540330 3.370659 -1.648420 -1.287371 0.692044 -3.822814 2.518538 -25.977134 1.333060 1.663659 -51.981577 8.479397 11.089651 5.531156 -24.843485 4.326537 -10.244622 -10.851500 2.778080 26.427069 12.643275 0.661191 46.396189 12.384176 14.194614 -18.765180 47.043387 -11.359245 3.475734 16.099092 2.322848 
-72.840309 -4.868477 88.302521 -131.690687 -2.137969 86.943139 0.926972 -2.681533 -21.194959 -4.648144 7.310491 24.256611 8.564840 12.106587 -9.488531 nan nan nan -8.603640 -1.880420 12.149414 1.797993 3.222763 44.889756 6.161377 -0.541782 -6.992139 nan nan nan -2.297950 9.802024 5.786615 1.254627 -3.210983 10.658867 -0.237275 1.789121 -5.842271 3.445405 -1.634910 -1.482663 0.589271 -3.909416 2.850104 -25.737172 0.963335 1.527921 -51.492242 8.573757 11.978251 4.110218 -22.936212 6.015377 -9.989480 -11.434978 2.542086 26.410742 12.780119 0.584914 45.996142 12.814875 14.045164 -18.805085 47.021216 -11.706995 2.975773 16.448469 2.500354 
-71.706169 -5.454874 88.051292 -131.963377 -2.109034 86.973576 1.426424 -2.766888 -22.511663 -4.582988 7.744844 25.010239 8.452027 12.170850 -9.251161 nan nan nan -8.614353 -1.847912 13.333022 2.034307 3.910780 43.583009 6.148779 -0.408987 -7.266961 nan nan nan -2.116949 10.297188 5.658720 1.125834 -3.208134 10.752338 -0.304530 1.855956 -5.756581 3.513927 -1.749406 -1.665439 0.612951 -4.065130 3.025935 -25.786370 0.907958 1.534997 -51.480538 8.685490 11.885310 4.449012 -22.106491 5.957818 -10.111468 -11.340499 2.612203 26.436418 12.984143 0.570185 45.743961 13.345673 13.884218 -19.260615 46.962200 -12.133248 3.011417 16.435844 2.607205 
